<svg width="202" height="45" viewBox="0 0 202 45" fill="none" xmlns="http://www.w3.org/2000/svg">
<path d="M3.22585 36V10.62H8.84185V20.808H20.4699V10.62H26.1219V36H20.4699V25.452H8.84185V36H3.22585ZM40.1005 36.396C36.9325 36.396 34.4605 35.544 32.6845 33.84C30.9085 32.136 30.0205 29.82 30.0205 26.892C30.0205 24.996 30.3925 23.34 31.1365 21.924C31.9045 20.508 32.9605 19.404 34.3045 18.612C35.6725 17.796 37.2685 17.388 39.0925 17.388C40.8925 17.388 42.3925 17.772 43.5925 18.54C44.8165 19.308 45.7285 20.388 46.3285 21.78C46.9525 23.148 47.2645 24.744 47.2645 26.568V27.828H34.4845V25.128H43.3045L42.6925 25.632C42.6925 24.12 42.3805 22.98 41.7565 22.212C41.1565 21.42 40.2805 21.024 39.1285 21.024C37.8565 21.024 36.8725 21.492 36.1765 22.428C35.5045 23.364 35.1685 24.708 35.1685 26.46V27.036C35.1685 28.812 35.6005 30.132 36.4645 30.996C37.3525 31.86 38.6245 32.292 40.2805 32.292C41.2645 32.292 42.1885 32.172 43.0525 31.932C43.9405 31.668 44.7805 31.26 45.5725 30.708L47.0845 34.308C46.1725 34.98 45.1165 35.496 43.9165 35.856C42.7405 36.216 41.4685 36.396 40.1005 36.396ZM50.6775 36V22.572C50.6775 21.78 50.6535 20.976 50.6055 20.16C50.5815 19.344 50.5215 18.54 50.4255 17.748H55.6455L56.2575 23.076H55.4295C55.6695 21.78 56.0535 20.712 56.5815 19.872C57.1335 19.032 57.8055 18.408 58.5975 18C59.4135 17.592 60.3375 17.388 61.3695 17.388C61.8255 17.388 62.1855 17.412 62.4495 17.46C62.7135 17.484 62.9775 17.544 63.2415 17.64L63.2055 22.428C62.7015 22.212 62.2695 22.08 61.9095 22.032C61.5735 21.96 61.1415 21.924 60.6135 21.924C59.6055 21.924 58.7655 22.116 58.0935 22.5C57.4455 22.884 56.9535 23.448 56.6175 24.192C56.3055 24.936 56.1495 25.836 56.1495 26.892V36H50.6775ZM73.8379 36.396C71.8939 36.396 70.2019 36.012 68.7619 35.244C67.3459 34.452 66.2419 33.348 65.4499 31.932C64.6819 30.516 64.2979 28.824 64.2979 26.856C64.2979 24.912 64.6819 23.232 65.4499 21.816C66.2419 20.4 67.3459 19.308 68.7619 18.54C70.2019 17.772 71.8939 17.388 73.8379 17.388C75.7819 17.388 77.4739 17.772 78.9139 18.54C80.3539 19.308 81.4579 20.4 82.2259 21.816C83.0179 23.232 83.4139 24.912 83.4139 26.856C83.4139 28.824 83.0179 30.516 82.2259 31.932C81.4579 33.348 80.3539 34.452 78.9139 35.244C77.4739 36.012 75.7819 36.396 73.8379 36.396ZM73.8379 32.292C75.0859 32.292 76.0699 31.848 76.7899 30.96C77.5339 30.072 77.9059 28.704 77.9059 26.856C77.9059 25.008 77.5339 23.652 76.7899 22.788C76.0699 21.924 75.0859 21.492 73.8379 21.492C72.5899 21.492 71.5939 21.924 70.8499 22.788C70.1299 23.652 69.7699 25.008 69.7699 26.856C69.7699 28.704 70.1299 30.072 70.8499 30.96C71.5939 31.848 72.5899 32.292 73.8379 32.292Z" fill="#131318"/>
<path d="M103.313 36V15.192H95.2486V10.62H116.993V15.192H108.929V36H103.313ZM116.806 36V22.572C116.806 21.78 116.782 20.976 116.734 20.16C116.71 19.344 116.65 18.54 116.554 17.748H121.774L122.386 23.076H121.558C121.798 21.78 122.182 20.712 122.71 19.872C123.262 19.032 123.934 18.408 124.726 18C125.542 17.592 126.466 17.388 127.498 17.388C127.954 17.388 128.314 17.412 128.578 17.46C128.842 17.484 129.106 17.544 129.37 17.64L129.334 22.428C128.83 22.212 128.398 22.08 128.038 22.032C127.702 21.96 127.27 21.924 126.742 21.924C125.734 21.924 124.894 22.116 124.222 22.5C123.574 22.884 123.082 23.448 122.746 24.192C122.434 24.936 122.278 25.836 122.278 26.892V36H116.806ZM138.559 36.396C136.975 36.396 135.583 36.012 134.383 35.244C133.183 34.476 132.247 33.384 131.575 31.968C130.903 30.552 130.567 28.848 130.567 26.856C130.567 24.888 130.903 23.196 131.575 21.78C132.247 20.364 133.183 19.284 134.383 18.54C135.583 17.772 136.975 17.388 138.559 17.388C140.023 17.388 141.331 17.748 142.483 18.468C143.659 19.164 144.427 20.112 144.787 21.312H144.391L144.823 17.748H150.043C149.971 18.54 149.899 19.344 149.827 20.16C149.779 20.952 149.755 21.732 149.755 22.5V36H144.355L144.319 32.58H144.751C144.367 33.732 143.599 34.656 142.447 35.352C141.295 36.048 139.999 36.396 138.559 36.396ZM140.215 32.292C141.463 32.292 142.471 31.848 143.239 30.96C144.007 30.072 144.391 28.704 144.391 26.856C144.391 25.008 144.007 23.652 143.239 22.788C142.471 21.924 141.463 21.492 140.215 21.492C138.967 21.492 137.959 21.924 137.191 22.788C136.423 23.652 136.039 25.008 136.039 26.856C136.039 28.704 136.411 30.072 137.155 30.96C137.923 31.848 138.943 32.292 140.215 32.292ZM159.33 36L151.446 17.748H157.17L162.39 30.996H161.202L166.602 17.748H171.966L164.01 36H159.33ZM182.624 36.396C179.456 36.396 176.984 35.544 175.208 33.84C173.432 32.136 172.544 29.82 172.544 26.892C172.544 24.996 172.916 23.34 173.66 21.924C174.428 20.508 175.484 19.404 176.828 18.612C178.196 17.796 179.792 17.388 181.616 17.388C183.416 17.388 184.916 17.772 186.116 18.54C187.34 19.308 188.252 20.388 188.852 21.78C189.476 23.148 189.788 24.744 189.788 26.568V27.828H177.008V25.128H185.828L185.216 25.632C185.216 24.12 184.904 22.98 184.28 22.212C183.68 21.42 182.804 21.024 181.652 21.024C180.38 21.024 179.396 21.492 178.7 22.428C178.028 23.364 177.692 24.708 177.692 26.46V27.036C177.692 28.812 178.124 30.132 178.988 30.996C179.876 31.86 181.148 32.292 182.804 32.292C183.788 32.292 184.712 32.172 185.576 31.932C186.464 31.668 187.304 31.26 188.096 30.708L189.608 34.308C188.696 34.98 187.64 35.496 186.44 35.856C185.264 36.216 183.992 36.396 182.624 36.396ZM193.237 36V9.504H198.673V36H193.237Z" fill="#FF5400"/>
</svg>
